<?xml version="1.0" encoding="utf-8"?>
<!DOCTYPE svg PUBLIC "-//W3C//DTD SVG 1.1//EN" "http://www.w3.org/Graphics/SVG/1.1/DTD/svg11.dtd">
<svg height="800px" width="800px" version="1.1" xmlns="http://www.w3.org/2000/svg" xmlns:xlink="http://www.w3.org/1999/xlink" viewBox="0 0 512 512" xml:space="preserve">
<style type="text/css">
	.greenish{fill:#1d6d2a;}
</style><g><path class="greenish" d="M208.025,129.341c -6.862,21.298,4.847,44.136,26.156,51.009c21.32,6.863,44.146-4.846,51.02-26.156
		c6.851-21.309-4.857-44.146-26.156-51.008C237.735,96.325,214.888,108.033,208.025,129.342z"/>
	<polygon class="greenish" points="178.928,49.225 212.395,90.508 219.165,86.8 192.318,50.818 202.122,45.416 171.665,0 162.308,5.792 
		189.245,42.966 	"/>
	<polygon class="greenish" points="147.505,90.632 195.917,106.996 199.905,100.201 159.757,84.583 165.55,74.424 117.717,52.802 
		112.582,62.928 153.297,79.436 	"/>
	<path class="greenish" d="M397.58,333.11l-43.457-81.577c-19.561-37.763-51.264-48.524-88.148-53.102c8,0.01-96.158-11.04-96.158-11.04
		l23.104-42.176c4.512-7.452,2.139-17.155-5.313-21.678c-7.442-4.511-17.144-2.127-21.667,5.315l-45.216,67.684
		c-5.536,9.147-1.683,24.555,11.163,27.794c3.208,0.803,90.888,20.452,91.646,21.767c4.992,8.766,16.632,55.586,16.955,61.547
		c0.178,3.408-1.27,7.854-3.787,12.688l-42.22,65.925c-2.773,5.391-4.992,11.04-4.467,15.985l11.575,88.617
		c0.657,10.193,9.458,17.935,19.662,17.278c10.193-0.658,17.946-9.458,17.278-19.651l0.033-72.586l39.357-56.033
		c0.323-0.602,2.328-2.017,1.458,1.459c-0.012,0.034-6.095,35.48-6.095,35.48c-1.068,4.656-0.802,7.832-0.513,11.574l20.265,86.5
		c0.768,10.193,9.647,17.835,19.838,17.066c10.194-0.768,17.835-9.647,17.078-19.839l-6.706-81.922l19.127-67.162
		c7.307-27.258-1.114-40.102-1.114-40.102c-0.234-1.281-0.468-2.607-0.713-3.955l2.316,3.51l26.815,45.36
		c4.077,7.708,13.625,10.65,21.322,6.594C398.715,350.355,401.656,340.818,397.58,333.11z"/>
</g></svg>